<?xml version="1.0" encoding="utf-8"?>
<!-- Generator: Adobe Illustrator 21.0.0, SVG Export Plug-In . SVG Version: 6.00 Build 0)  -->
<svg version="1.1" id="Capa_1" xmlns="http://www.w3.org/2000/svg" xmlns:xlink="http://www.w3.org/1999/xlink" x="0px" y="0px"
	 viewBox="0 0 282.7 343" style="enable-background:new 0 0 282.7 343;" xml:space="preserve">
<style type="text/css">
	.st0{fill:#F2A102;}
	.st1{fill:#E9B666;}
</style>
<g>
	<polygon class="st0" points="49.1,75.2 233.6,75.2 219.1,50 63.7,50 	"/>
	<polygon class="st0" points="233.6,128.4 49.1,128.4 63.7,153.6 219.1,153.6 	"/>
	<polygon class="st1" points="41,114.4 241.7,114.4 249,101.8 241.7,89.2 41,89.2 33.7,101.8 	"/>
	<polygon class="st1" points="71.7,167.6 87.5,195 195.2,195 211,167.6 	"/>
	<polygon class="st1" points="211,36 195.2,8.6 87.5,8.6 71.7,36 	"/>
	<path class="st0" d="M270.9,255c-9.4,23.2-17,37-22.9,41.5c-5.8,4.4-11.8,5.4-17.9,2.7c-6.1-2.6-9.9-11.2-11.4-25.7
		c9-3.7,17-10.7,24.1-21c7.1-10.4,10-19.1,8.6-26.1c-1.4-7-7.8-8.7-19.4-5c-7.2,3.8-12.8,9.1-16.7,15.9c-6.3,10.3-9.1,21.6-8.3,34
		c-6.3,13.5-11.6,22-15.9,25.2c-5.8,4.4-11.8,5.4-17.9,2.7c-6.1-2.6-9.9-11.2-11.4-25.7c9-3.7,17-10.7,24.1-21
		c7.1-10.4,10-19.1,8.6-26.1c-1.4-7-7.8-8.7-19.4-5c-7.2,3.8-12.8,9.1-16.7,15.9c-6.2,10.1-9,21.2-8.4,33.3
		c-22.4,54.6-31.6,70.2-27.5,46.6c4.5-25.8,7.1-45.4,7.9-58.7c0.8-13.4-1.3-22.1-6.3-26.2c-5-4.1-9.4-4.9-13.4-2.5
		c-3.9,2.5-10.1,15.2-18.6,38.2c4.7-29.3,3.1-42.7-4.8-40.2c-0.8,12.6-1.3,22.7-1.6,30.2c-4.2,8.8-8,15.1-11.5,18.7
		c-4,4.2-8.6,4-13.7-0.8c3.5-19.8,3.2-34-1-42.6c-4.2-8.6-10.1-13.2-17.7-13.7c-7.7-0.5-15.2,4.8-22.5,15.8
		C8.6,252.2,5.8,269.4,11,287.1c4.4,10.2,9.8,16.3,16,18.2c6.2,1.9,12.2,0.7,17.9-3.6c5.7-4.4,10.3-11.2,13.9-20.6
		c4.1,2.9,8.7,3.6,13.6,2.3c3.6-1,8-6.2,13-15.5c0,0.6,0,1.1,0,1.6c-0.1,7-0.8,16.5-2.2,28.7c-2.8,13.7-0.4,18.4,7.1,14l5.5-33.4
		c2.9-13.7,6.9-26.5,12-38.4c5.1-11.9,7.7-9.7,7.9,6.6c0.2,16.3-0.5,34-2.2,53.2c-1.6,19.2-0.4,30.3,3.7,33.4
		c4.1,3.1,9.7-2.8,16.9-17.7c5-10.5,10.7-22.7,16.9-36.7c2,11.2,6.4,18.9,13.3,23.2c7.8,4.9,15.8,5.8,23.8,2.7
		c5.9-2.2,12.5-10.8,19.8-25.7c2,11,6.4,18.7,13.3,22.9c7.8,4.9,15.8,5.8,23.8,2.7c8.1-3,17.5-18,28.3-44.8
		C275.2,255.4,274.3,253.6,270.9,255z M43.1,297.3c-4.6,4.5-9.3,4.3-14.2-0.5c-4.9-4.9-7.7-11.9-8.5-21.2c-0.8-9.3,1-19.6,5.4-30.9
		c4.4-11.4,9.1-17.5,14.2-18.3c0,24.7,4.9,41.9,14.7,51.7C51.6,286.4,47.7,292.8,43.1,297.3z M56.2,272.9
		c-7.6-10.4-11.3-26.1-11.2-46.9c5.5,1,9.4,5.9,11.5,14.7C58.6,249.4,58.5,260.1,56.2,272.9z M167.9,247.4
		c2.4-5.4,6.5-10.9,12.4-16.5c5.9-5.6,9.3-6.6,10.3-2.9c1,3.7-1.5,10.5-7.6,20.1c-6.1,9.7-13.3,16.4-21.4,20.3
		C163.4,259.8,165.6,252.8,167.9,247.4z M224.9,247.4c2.4-5.4,6.5-10.9,12.4-16.5c5.9-5.6,9.3-6.6,10.3-2.9c1,3.7-1.5,10.5-7.6,20.1
		c-6.1,9.7-13.3,16.4-21.4,20.3C220.4,259.8,222.5,252.8,224.9,247.4z"/>
</g>
</svg>
